<svg width="50" height="10" viewBox="0 0 50 10" fill="none" xmlns="http://www.w3.org/2000/svg">
<g id="stars">
<path id="Star 1" d="M5 0L6.12257 3.45492H9.75528L6.81636 5.59017L7.93893 9.04508L5 6.90983L2.06107 9.04508L3.18364 5.59017L0.244718 3.45492H3.87743L5 0Z" fill="#FFB905"/>
<path id="Star 2" d="M15 0L16.1226 3.45492H19.7553L16.8164 5.59017L17.9389 9.04508L15 6.90983L12.0611 9.04508L13.1836 5.59017L10.2447 3.45492H13.8774L15 0Z" fill="#FFB905"/>
<path id="Star 3" d="M25 0L26.1226 3.45492H29.7553L26.8164 5.59017L27.9389 9.04508L25 6.90983L22.0611 9.04508L23.1836 5.59017L20.2447 3.45492H23.8774L25 0Z" fill="#FFB905"/>
<path id="Star 4" d="M35 0L36.1226 3.45492H39.7553L36.8164 5.59017L37.9389 9.04508L35 6.90983L32.0611 9.04508L33.1836 5.59017L30.2447 3.45492H33.8774L35 0Z" fill="#FFB905"/>
<path id="Star 5" d="M45.0004 0L45.0004 3.45492V5.59017L45.0004 6.90983L42.0615 9.04508L43.184 5.59017L40.2451 3.45492H43.8778L45.0004 0Z" fill="#FFB905"/>
<path id="Star 6" d="M44.9996 0L44.9996 3.45492V5.59017L44.9996 6.90983L47.9385 9.04508L46.816 5.59017L49.7549 3.45492H46.1222L44.9996 0Z" fill="#D3D3D2"/>
</g>
</svg>
